<?xml version="1.0" encoding="UTF-8"?>
<!DOCTYPE svg PUBLIC "-//W3C//DTD SVG 1.1//EN" "http://www.w3.org/Graphics/SVG/1.1/DTD/svg11.dtd">
<svg xmlns="http://www.w3.org/2000/svg" version="1.1" width="75px" height="73px" style="shape-rendering:geometricPrecision; text-rendering:geometricPrecision; image-rendering:optimizeQuality; fill-rule:evenodd; clip-rule:evenodd" xmlns:xlink="http://www.w3.org/1999/xlink">
<g><path style="opacity:0.656" fill="#df1d22" d="M 36.5,-0.5 C 40.8333,-0.5 45.1667,-0.5 49.5,-0.5C 50.4293,0.314913 51.4293,1.14825 52.5,2C 46.5614,8.08343 40.8947,7.91676 35.5,1.5C 35.8627,0.816537 36.1961,0.14987 36.5,-0.5 Z"/></g>
<g><path style="opacity:0.779" fill="#605656" d="M 67.5,14.5 C 60.7705,13.4906 53.7705,12.1573 46.5,10.5C 43.1226,10.0679 40.1226,10.7345 37.5,12.5C 29.1831,18.8197 21.1831,25.4863 13.5,32.5C 11.8333,33.1667 10.1667,33.8333 8.5,34.5C 13.8333,29.5 19.1667,24.5 24.5,19.5C 27.0892,18.5806 29.0892,16.914 30.5,14.5C 33.0026,12.1673 35.6693,10.0007 38.5,8C 48.6972,8.13442 58.3639,10.3011 67.5,14.5 Z"/></g>
<g><path style="opacity:1" fill="#5d5a5a" d="M 46.5,11.5 C 52.6016,13.4249 58.9349,14.9249 65.5,16C 67.9458,20.8021 69.2791,25.9688 69.5,31.5C 61.8127,31.5403 54.1461,31.207 46.5,30.5C 44.8475,24.3118 43.8475,17.9785 43.5,11.5C 44.5,11.5 45.5,11.5 46.5,11.5 Z"/></g>
<g><path style="opacity:0.9" fill="#f9c802" d="M 30.5,14.5 C 29.0892,16.914 27.0892,18.5806 24.5,19.5C 12.4928,19.505 5.82615,25.505 4.5,37.5C 4.5,37.8333 4.5,38.1667 4.5,38.5C 3.47856,40.5233 3.81189,42.5233 5.5,44.5C 6.83333,47.1667 8.83333,49.1667 11.5,50.5C 17.9533,55.403 24.6199,55.7363 31.5,51.5C 34.1272,52.0916 36.7938,52.4249 39.5,52.5C 34.5466,59.4553 29.2133,66.1219 23.5,72.5C 22.8333,72.5 22.1667,72.5 21.5,72.5C 12.9305,63.6574 5.59719,53.9907 -0.5,43.5C -0.5,39.1667 -0.5,34.8333 -0.5,30.5C 5.16666,16.4979 15.5,11.1645 30.5,14.5 Z"/></g>
<g><path style="opacity:1" fill="#615958" d="M 38.5,14.5 C 40.9586,16.052 42.4586,18.3854 43,21.5C 43.6667,24.8333 43.6667,28.1667 43,31.5C 40.3027,28.1295 36.8027,26.7962 32.5,27.5C 29.7079,20.9431 31.7079,16.6098 38.5,14.5 Z"/></g>
<g><path style="opacity:1" fill="#c03032" d="M 37.5,12.5 C 37.8333,13.1667 38.1667,13.8333 38.5,14.5C 31.7079,16.6098 29.7079,20.9431 32.5,27.5C 31.791,28.404 30.791,28.7373 29.5,28.5C 29.6641,25.8127 29.4974,23.146 29,20.5C 25.0237,23.1082 23.5237,26.7748 24.5,31.5C 23.8333,31.8333 23.1667,32.1667 22.5,32.5C 22.6621,30.4727 22.4955,28.4727 22,26.5C 20.3333,27.8333 18.6667,29.1667 17,30.5C 16.235,32.0657 16.4017,33.3991 17.5,34.5C 17.1583,35.3382 16.4916,35.6716 15.5,35.5C 15.7148,33.8212 15.0481,32.8212 13.5,32.5C 21.1831,25.4863 29.1831,18.8197 37.5,12.5 Z"/></g>
<g><path style="opacity:1" fill="#de2126" d="M 46.5,10.5 C 46.5,10.8333 46.5,11.1667 46.5,11.5C 45.5,11.5 44.5,11.5 43.5,11.5C 43.8475,17.9785 44.8475,24.3118 46.5,30.5C 46.2284,32.8953 46.2284,35.2286 46.5,37.5C 46.8333,37.8333 47.1667,38.1667 47.5,38.5C 48.4519,36.9547 48.7852,35.288 48.5,33.5C 51.5983,33.4125 51.9316,33.9125 49.5,35C 49.0111,36.5523 49.6777,37.719 51.5,38.5C 56.8557,39.7044 62.189,39.7044 67.5,38.5C 68.1667,38.8333 68.8333,39.1667 69.5,39.5C 70.0431,39.56 70.3764,39.8933 70.5,40.5C 67.2498,41.9142 66.9165,43.5809 69.5,45.5C 69.3893,46.1174 69.056,46.6174 68.5,47C 57.8385,47.4998 47.1719,47.6665 36.5,47.5C 36.8935,44.0703 36.2268,40.9036 34.5,38C 32.8333,37.3333 31.1667,37.3333 29.5,38C 28.7476,38.6708 28.4142,39.5041 28.5,40.5C 27.5269,42.9479 27.1936,45.6146 27.5,48.5C 22.5,48.5 17.5,48.5 12.5,48.5C 12.0964,43.7981 9.76311,42.4648 5.5,44.5C 3.81189,42.5233 3.47856,40.5233 4.5,38.5C 4.36912,39.3764 4.70245,40.0431 5.5,40.5C 7.77997,39.8641 9.77997,38.8641 11.5,37.5C 12.9952,37.0113 14.3285,36.3446 15.5,35.5C 16.4916,35.6716 17.1583,35.3382 17.5,34.5C 19.2838,34.1075 20.9505,33.4408 22.5,32.5C 23.1667,32.1667 23.8333,31.8333 24.5,31.5C 26.3684,30.7368 28.0351,29.7368 29.5,28.5C 30.791,28.7373 31.791,28.404 32.5,27.5C 36.8027,26.7962 40.3027,28.1295 43,31.5C 43.6667,28.1667 43.6667,24.8333 43,21.5C 42.4586,18.3854 40.9586,16.052 38.5,14.5C 38.1667,13.8333 37.8333,13.1667 37.5,12.5C 40.1226,10.7345 43.1226,10.0679 46.5,10.5 Z"/></g>
<g><path style="opacity:1" fill="#5e5959" d="M 29.5,28.5 C 28.0351,29.7368 26.3684,30.7368 24.5,31.5C 23.5237,26.7748 25.0237,23.1082 29,20.5C 29.4974,23.146 29.6641,25.8127 29.5,28.5 Z"/></g>
<g><path style="opacity:0.746" fill="#5d5857" d="M 69.5,19.5 C 70.4511,20.9187 70.7845,22.5853 70.5,24.5C 71.8333,24.5 73.1667,24.5 74.5,24.5C 74.5,26.8333 74.5,29.1667 74.5,31.5C 73.3065,31.9704 72.6399,32.9704 72.5,34.5C 76.2367,45.8996 72.2367,51.0663 60.5,50C 63.8333,50.3333 67.1667,50.6667 70.5,51C 68.4404,52.6965 66.1071,53.8631 63.5,54.5C 55.5216,53.6125 47.5216,52.9458 39.5,52.5C 36.7938,52.4249 34.1272,52.0916 31.5,51.5C 24.8039,51.609 18.1373,51.2757 11.5,50.5C 8.83333,49.1667 6.83333,47.1667 5.5,44.5C 9.76311,42.4648 12.0964,43.7981 12.5,48.5C 17.0679,49.5 22.4012,49.8334 28.5,49.5C 28.5,46.5 28.5,43.5 28.5,40.5C 28.4142,39.5041 28.7476,38.6708 29.5,38C 31.1667,37.3333 32.8333,37.3333 34.5,38C 36.2268,40.9036 36.8935,44.0703 36.5,47.5C 47.1719,47.6665 57.8385,47.4998 68.5,47C 69.056,46.6174 69.3893,46.1174 69.5,45.5C 70.1174,45.3893 70.6174,45.056 71,44.5C 71.8136,39.9796 71.647,35.6463 70.5,31.5C 70.1667,27.5 69.8333,23.5 69.5,19.5 Z"/></g>
<g><path style="opacity:1" fill="#5f5959" d="M 22.5,32.5 C 20.9505,33.4408 19.2838,34.1075 17.5,34.5C 16.4017,33.3991 16.235,32.0657 17,30.5C 18.6667,29.1667 20.3333,27.8333 22,26.5C 22.4955,28.4727 22.6621,30.4727 22.5,32.5 Z"/></g>
<g><path style="opacity:1" fill="#cc2c2d" d="M 46.5,10.5 C 53.7705,12.1573 60.7705,13.4906 67.5,14.5C 69.2132,15.6354 69.8799,17.302 69.5,19.5C 69.8333,23.5 70.1667,27.5 70.5,31.5C 70.5164,33.9986 70.1831,36.6652 69.5,39.5C 68.8333,39.1667 68.1667,38.8333 67.5,38.5C 66.7375,37.7321 65.7375,37.2321 64.5,37C 65.1667,36.6667 65.8333,36.3333 66.5,36C 61.5,35.3333 56.5,35.3333 51.5,36C 53.1667,36.3333 54.8333,36.6667 56.5,37C 54.6183,37.1981 52.9516,37.6981 51.5,38.5C 49.6777,37.719 49.0111,36.5523 49.5,35C 51.9316,33.9125 51.5983,33.4125 48.5,33.5C 48.7852,35.288 48.4519,36.9547 47.5,38.5C 47.1667,38.1667 46.8333,37.8333 46.5,37.5C 46.2284,35.2286 46.2284,32.8953 46.5,30.5C 54.1461,31.207 61.8127,31.5403 69.5,31.5C 69.2791,25.9688 67.9458,20.8021 65.5,16C 58.9349,14.9249 52.6016,13.4249 46.5,11.5C 46.5,11.1667 46.5,10.8333 46.5,10.5 Z"/></g>
<g><path style="opacity:1" fill="#645757" d="M 13.5,32.5 C 15.0481,32.8212 15.7148,33.8212 15.5,35.5C 14.3285,36.3446 12.9952,37.0113 11.5,37.5C 10.9569,37.44 10.6236,37.1067 10.5,36.5C 11.5244,35.1482 12.5244,33.8149 13.5,32.5 Z"/></g>
<g><path style="opacity:1" fill="#a63a3c" d="M 67.5,38.5 C 62.189,39.7044 56.8557,39.7044 51.5,38.5C 52.9516,37.6981 54.6183,37.1981 56.5,37C 54.8333,36.6667 53.1667,36.3333 51.5,36C 56.5,35.3333 61.5,35.3333 66.5,36C 65.8333,36.3333 65.1667,36.6667 64.5,37C 65.7375,37.2321 66.7375,37.7321 67.5,38.5 Z"/></g>
<g><path style="opacity:0.976" fill="#9c4241" d="M 13.5,32.5 C 12.5244,33.8149 11.5244,35.1482 10.5,36.5C 10.6236,37.1067 10.9569,37.44 11.5,37.5C 9.77997,38.8641 7.77997,39.8641 5.5,40.5C 4.70245,40.0431 4.36912,39.3764 4.5,38.5C 4.5,38.1667 4.5,37.8333 4.5,37.5C 5.83333,36.5 7.16667,35.5 8.5,34.5C 10.1667,33.8333 11.8333,33.1667 13.5,32.5 Z"/></g>
<g><path style="opacity:1" fill="#6a5555" d="M 46.5,41.5 C 49.1662,41.0658 50.3329,42.0658 50,44.5C 47.3422,45.694 46.1756,44.694 46.5,41.5 Z"/></g>
<g><path style="opacity:1" fill="#a43e3e" d="M 70.5,31.5 C 71.647,35.6463 71.8136,39.9796 71,44.5C 70.6174,45.056 70.1174,45.3893 69.5,45.5C 66.9165,43.5809 67.2498,41.9142 70.5,40.5C 70.3764,39.8933 70.0431,39.56 69.5,39.5C 70.1831,36.6652 70.5164,33.9986 70.5,31.5 Z"/></g>
<g><path style="opacity:1" fill="#615858" d="M 52.5,43.5 C 56.9811,42.3516 61.6478,42.1849 66.5,43C 61.9329,44.8233 57.2663,44.9899 52.5,43.5 Z"/></g>
<g><path style="opacity:0.91" fill="#834b4b" d="M 28.5,40.5 C 28.5,43.5 28.5,46.5 28.5,49.5C 22.4012,49.8334 17.0679,49.5 12.5,48.5C 17.5,48.5 22.5,48.5 27.5,48.5C 27.1936,45.6146 27.5269,42.9479 28.5,40.5 Z"/></g>
</svg>
